<svg xmlns="http://www.w3.org/2000/svg" viewBox="0 0 512 512" width="512" height="512">
  <!-- Background -->
  <rect width="512" height="512" rx="112" fill="#0D0F14"/>
  <!-- Outer hexagon -->
  <path d="M256 48 L432 144 L432 336 L256 432 L80 336 L80 144 Z" fill="none" stroke="#7EB8C9" stroke-width="14" stroke-linejoin="round" opacity="0.25"/>
  <!-- Inner hexagon -->
  <path d="M256 108 L380 172 L380 308 L256 384 L132 308 L132 172 Z" fill="none" stroke="#7EB8C9" stroke-width="10" stroke-linejoin="round" opacity="0.7"/>
  <!-- Gold bars -->
  <rect x="168" y="268" width="40" height="76" rx="10" fill="url(#g1)"/>
  <rect x="236" y="208" width="40" height="136" rx="10" fill="url(#g1)"/>
  <rect x="304" y="148" width="40" height="196" rx="10" fill="url(#g1)"/>
  <!-- Nodes -->
  <circle cx="188" cy="268" r="14" fill="#B0AEAD"/>
  <circle cx="256" cy="208" r="14" fill="#B0AEAD"/>
  <circle cx="324" cy="148" r="14" fill="#B0AEAD"/>
  <!-- Trend line -->
  <path d="M188 268 L256 208 L324 148" fill="none" stroke="#B0AEAD" stroke-width="8" opacity="0.9" stroke-linecap="round"/>
  <!-- Dashed green circle -->
  <circle cx="256" cy="210" r="76" fill="none" stroke="#7EC9A2" stroke-width="7" opacity="0.8" stroke-dasharray="16 14"/>
  <defs>
    <linearGradient id="g1" x1="0%" y1="0%" x2="0%" y2="100%">
      <stop offset="0%" stop-color="#E8C98E"/>
      <stop offset="100%" stop-color="#C8A96E"/>
    </linearGradient>
  </defs>
</svg>
